# xmcd
# Track frame offsets:
# 150
# 17087
# 28577
# 40825
# 50637
# 58757
# 70002
# 80520
# 93757
# 106467
# 118792
# 131457
# 139835
# 149930
# 164762
# 172837
# 182155
# 195615
# 209412
# 218187
#
# Disc length: 3046 seconds
# Revision: 0
# Processed by: cddbd v1.4PL0 Copyright (c) Steve Scherf et al.
# Submitted via: VisiTrax 2.9.5.181 - For more info visit www.synapsa.com
#
DISCID=2e0be414
DTITLE=Willie Nelson - 20 Golden Classics
DYEAR=2003
DGENRE=Country
TTITLE0=I let my mind wonder
TTITLE1=December days
TTITLE2=I can't find the time
TTITLE3=I didn't sleep a wink
TTITLE4=You wouldn't cross the street to say goodbye
TTITLE5=Suffering in silence
TTITLE6=I feel sorry for him
TTITLE7=You'll always have someone
TTITLE8=I just don't understand
TTITLE9=Shelter of my arms
TTITLE10=Any old arms won't do
TTITLE11=Slow down old world
TTITLE12=Healing hands of time
TTITLE13=And so will you my love
TTITLE14=Things to remember
TTITLE15=One step beyond
TTITLE16=Undo the wrong
TTITLE17=Home is where you're happy
TTITLE18=Why are you picking on me
TTITLE19=Blame it on the time
EXTD=
EXTT0=
EXTT1=
EXTT2=
EXTT3=
EXTT4=
EXTT5=
EXTT6=
EXTT7=
EXTT8=
EXTT9=
EXTT10=
EXTT11=
EXTT12=
EXTT13=
EXTT14=
EXTT15=
EXTT16=
EXTT17=
EXTT18=
EXTT19=
PLAYORDER=
